<?xml version="1.0" encoding="UTF-8" standalone="no"?>
<!-- Created with Inkscape (http://www.inkscape.org/) -->

<svg
   width="99mm"
   height="99mm"
   viewBox="0 0 99 99"
   version="1.1"
   id="svg1"
   xml:space="preserve"
   inkscape:version="1.4 (e7c3feb100, 2024-10-09)"
   sodipodi:docname="btc4.svg"
   xmlns:inkscape="http://www.inkscape.org/namespaces/inkscape"
   xmlns:sodipodi="http://sodipodi.sourceforge.net/DTD/sodipodi-0.dtd"
   xmlns="http://www.w3.org/2000/svg"
   xmlns:svg="http://www.w3.org/2000/svg"><sodipodi:namedview
     id="namedview1"
     pagecolor="#ffffff"
     bordercolor="#000000"
     borderopacity="0.25"
     inkscape:showpageshadow="2"
     inkscape:pageopacity="0.0"
     inkscape:pagecheckerboard="0"
     inkscape:deskcolor="#d1d1d1"
     inkscape:document-units="mm"
     inkscape:zoom="2.1059764"
     inkscape:cx="84.046526"
     inkscape:cy="169.04273"
     inkscape:window-width="2560"
     inkscape:window-height="1383"
     inkscape:window-x="0"
     inkscape:window-y="33"
     inkscape:window-maximized="1"
     inkscape:current-layer="layer1" /><defs
     id="defs1" /><g
     inkscape:label="Layer 1"
     inkscape:groupmode="layer"
     id="layer1"><g
       transform="matrix(2.1166667,0,0,2.1166667,0.02866301,0.03738049)"
       id="g3"><path
         class="qrline"
         stroke="#ffa500"
         d="m 1,1.5 h 7 m 29,0 h 1 m 1,0 h 7 m -45,1 h 1 m 5,0 h 1 m 28,0 h 1 m 2,0 h 1 m 5,0 h 1 m -45,1 h 1 m 1,0 h 3 m 1,0 h 1 m 28,0 h 1 m 2,0 h 1 m 1,0 h 3 m 1,0 h 1 m -45,1 h 1 m 1,0 h 3 m 1,0 h 1 m 28,0 h 2 m 1,0 h 1 m 1,0 h 3 m 1,0 h 1 m -45,1 h 1 m 1,0 h 3 m 1,0 h 1 m 1,0 h 1 m 11,0 h 5 m 9,0 h 3 m 1,0 h 1 m 1,0 h 3 m 1,0 h 1 m -45,1 h 1 m 5,0 h 1 m 13,0 h 1 m 3,0 h 1 m 13,0 h 1 m 5,0 h 1 m -45,1 h 7 m 1,0 h 1 m 1,0 h 1 m 1,0 h 1 m 1,0 h 1 m 1,0 h 1 m 1,0 h 1 m 1,0 h 1 m 1,0 h 1 m 1,0 h 1 m 1,0 h 1 m 1,0 h 1 m 1,0 h 1 m 1,0 h 1 m 1,0 h 1 m 1,0 h 1 m 1,0 h 7 m -37,1 h 1 m 11,0 h 1 m 3,0 h 1 m -23,1 h 2 m 2,0 h 3 m 11,0 h 5 m 11,0 h 3 m 1,0 h 1 m -35,2 h 1 m -1,2 h 1 m -1,2 h 1 m -1,2 h 1 m -1,2 h 1 m -3,2 h 5 m 11,0 h 5 m 11,0 h 5 m -37,1 h 1 m 3,0 h 1 m 11,0 h 1 m 3,0 h 1 m 11,0 h 1 m 3,0 h 1 m -37,1 h 1 m 1,0 h 1 m 1,0 h 1 m 11,0 h 1 m 1,0 h 1 m 1,0 h 1 m 11,0 h 1 m 1,0 h 1 m 1,0 h 1 m -37,1 h 1 m 3,0 h 1 m 11,0 h 1 m 3,0 h 1 m 11,0 h 1 m 3,0 h 1 m -37,1 h 5 m 11,0 h 5 m 11,0 h 5 m -35,2 h 1 m -1,2 h 1 m -1,2 h 1 m -1,2 h 1 m -3,2 h 1 m 1,0 h 1 m -6,1 h 4 m -5,1 h 1 m 2,0 h 2 m 1,0 h 1 m 13,0 h 5 m 11,0 h 5 m -33,1 h 1 m 11,0 h 1 m 3,0 h 1 m 11,0 h 1 m 3,0 h 1 m -41,1 h 7 m 1,0 h 1 m 11,0 h 1 m 1,0 h 1 m 1,0 h 1 m 11,0 h 1 m 1,0 h 1 m 1,0 h 1 m -41,1 h 1 m 5,0 h 1 m 13,0 h 1 m 3,0 h 1 m 11,0 h 1 m 3,0 h 1 m -41,1 h 1 m 1,0 h 3 m 1,0 h 1 m 13,0 h 5 m 11,0 h 5 m -41,1 h 1 m 1,0 h 3 m 1,0 h 1 m 1,0 h 1 m -9,1 h 1 m 1,0 h 3 m 1,0 h 1 m 1,0 h 1 m -9,1 h 1 m 5,0 h 1 m -7,1 h 7"
         id="path1" /><path
         class="qrline"
         stroke="#ffffff"
         d="m 10,1.5 h 2 m 5,0 h 1 m 2,0 h 2 m 1,0 h 2 m 2,0 h 2 m 1,0 h 3 m -23,1 h 8 m 2,0 h 3 m 1,0 h 3 m 2,0 h 1 m 1,0 h 4 m -24,1 h 1 m 2,0 h 2 m 1,0 h 2 m 1,0 h 3 m 5,0 h 1 m 1,0 h 1 m 1,0 h 1 m -23,1 h 2 m 1,0 h 1 m 2,0 h 1 m 1,0 h 1 m 2,0 h 2 m 1,0 h 2 m 3,0 h 2 m -17,1 h 1 m 1,0 h 1 m 2,0 h 2 m 7,0 h 1 m 1,0 h 1 m 3,0 h 1 m -25,1 h 4 m 1,0 h 1 m 2,0 h 3 m 5,0 h 1 m 1,0 h 4 m 1,0 h 2 m -24,2 h 1 m 2,0 h 2 m 1,0 h 1 m 2,0 h 1 m 5,0 h 1 m 1,0 h 2 m 2,0 h 1 m 1,0 h 1 m -25,1 h 1 m 1,0 h 2 m 4,0 h 1 m 1,0 h 1 m 8,0 h 4 m 2,0 h 1 m -34,1 h 1 m 1,0 h 2 m 3,0 h 2 m 2,0 h 2 m 3,0 h 1 m 1,0 h 1 m 1,0 h 1 m 1,0 h 4 m 3,0 h 1 m 2,0 h 1 m 1,0 h 3 m 2,0 h 1 m 1,0 h 3 m -45,1 h 3 m 4,0 h 4 m 1,0 h 1 m 1,0 h 1 m 1,0 h 1 m 1,0 h 3 m 3,0 h 2 m 1,0 h 1 m 2,0 h 1 m 2,0 h 2 m 1,0 h 2 m 4,0 h 1 m 1,0 h 1 m -45,1 h 2 m 3,0 h 1 m 1,0 h 7 m 2,0 h 3 m 3,0 h 1 m 2,0 h 2 m 1,0 h 1 m 1,0 h 5 m 2,0 h 1 m 1,0 h 1 m 1,0 h 1 m 2,0 h 1 m -45,1 h 1 m 2,0 h 2 m 4,0 h 5 m 3,0 h 1 m 8,0 h 2 m 1,0 h 3 m 2,0 h 1 m 6,0 h 1 m 1,0 h 1 m -42,1 h 1 m 1,0 h 1 m 2,0 h 1 m 1,0 h 4 m 1,0 h 1 m 1,0 h 1 m 1,0 h 1 m 1,0 h 1 m 1,0 h 1 m 2,0 h 1 m 5,0 h 2 m 5,0 h 2 m 1,0 h 1 m 1,0 h 1 m -43,1 h 1 m 1,0 h 2 m 2,0 h 1 m 1,0 h 1 m 1,0 h 1 m 1,0 h 3 m 3,0 h 2 m 1,0 h 2 m 5,0 h 2 m 2,0 h 1 m 4,0 h 1 m 3,0 h 1 m -43,1 h 1 m 2,0 h 2 m 3,0 h 1 m 2,0 h 1 m 2,0 h 2 m 1,0 h 1 m 1,0 h 1 m 1,0 h 3 m 1,0 h 1 m 1,0 h 1 m 2,0 h 3 m 1,0 h 1 m 2,0 h 1 m 1,0 h 5 m -44,1 h 1 m 1,0 h 1 m 2,0 h 1 m 3,0 h 1 m 1,0 h 1 m 1,0 h 1 m 2,0 h 4 m 2,0 h 3 m 2,0 h 3 m 2,0 h 2 m 1,0 h 3 m 1,0 h 1 m 1,0 h 2 m -39,1 h 1 m 4,0 h 1 m 6,0 h 2 m 3,0 h 3 m 1,0 h 1 m 2,0 h 1 m 3,0 h 1 m 1,0 h 2 m 4,0 h 1 m 1,0 h 3 m -45,1 h 1 m 1,0 h 2 m 1,0 h 1 m 2,0 h 1 m 3,0 h 3 m 3,0 h 1 m 1,0 h 5 m 2,0 h 2 m 1,0 h 1 m 1,0 h 1 m 1,0 h 1 m 2,0 h 4 m 1,0 h 2 m -43,1 h 1 m 1,0 h 1 m 5,0 h 1 m 1,0 h 1 m 1,0 h 4 m 2,0 h 1 m 2,0 h 2 m 2,0 h 1 m 3,0 h 2 m 2,0 h 7 m -40,1 h 3 m 7,0 h 1 m 2,0 h 3 m 1,0 h 2 m 7,0 h 1 m 2,0 h 2 m 1,0 h 1 m 1,0 h 1 m 6,0 h 2 m -43,1 h 1 m 9,0 h 3 m 1,0 h 2 m 9,0 h 4 m 1,0 h 1 m 3,0 h 1 m 5,0 h 2 m 1,0 h 1 m -45,1 h 3 m 7,0 h 1 m 1,0 h 1 m 5,0 h 2 m 8,0 h 2 m 4,0 h 2 m 5,0 h 1 m 1,0 h 2 m -44,1 h 1 m 1,0 h 1 m 5,0 h 2 m 2,0 h 2 m 1,0 h 1 m 8,0 h 1 m 4,0 h 3 m 8,0 h 1 m 1,0 h 2 m -42,1 h 1 m 6,0 h 2 m 6,0 h 1 m 6,0 h 4 m 2,0 h 1 m 3,0 h 1 m 5,0 h 1 m 1,0 h 2 m -40,1 h 1 m 4,0 h 1 m 2,0 h 1 m 1,0 h 1 m 3,0 h 1 m 2,0 h 3 m 1,0 h 1 m 1,0 h 1 m 1,0 h 1 m 7,0 h 2 m 1,0 h 3 m -44,1 h 6 m 1,0 h 1 m 1,0 h 1 m 2,0 h 1 m 2,0 h 1 m 3,0 h 5 m 6,0 h 2 m 1,0 h 1 m 2,0 h 1 m 3,0 h 2 m -42,1 h 1 m 1,0 h 1 m 1,0 h 2 m 4,0 h 2 m 1,0 h 2 m 1,0 h 1 m 1,0 h 2 m 1,0 h 1 m 2,0 h 1 m 1,0 h 2 m 1,0 h 1 m 1,0 h 2 m 2,0 h 2 m 1,0 h 1 m 2,0 h 2 m 1,0 h 1 m -44,1 h 5 m 2,0 h 1 m 1,0 h 3 m 3,0 h 1 m 1,0 h 1 m 1,0 h 4 m 2,0 h 2 m 2,0 h 4 m 1,0 h 2 m 2,0 h 2 m 1,0 h 1 m 1,0 h 1 m -42,1 h 1 m 1,0 h 1 m 2,0 h 1 m 1,0 h 1 m 1,0 h 1 m 1,0 h 3 m 1,0 h 2 m 1,0 h 1 m 2,0 h 2 m 1,0 h 1 m 1,0 h 2 m 2,0 h 3 m 1,0 h 1 m 1,0 h 2 m 3,0 h 1 m -45,1 h 1 m 1,0 h 1 m 10,0 h 3 m 1,0 h 3 m 1,0 h 2 m 1,0 h 3 m 3,0 h 1 m 2,0 h 2 m 2,0 h 1 m 3,0 h 1 m 1,0 h 1 m -43,1 h 1 m 1,0 h 1 m 3,0 h 2 m 2,0 h 2 m 5,0 h 1 m 2,0 h 1 m 1,0 h 1 m 1,0 h 2 m 4,0 h 1 m 4,0 h 1 m -37,1 h 1 m 7,0 h 1 m 1,0 h 2 m 2,0 h 1 m 1,0 h 1 m 1,0 h 2 m 6,0 h 2 m 1,0 h 2 m 5,0 h 2 m 4,0 h 2 m -44,1 h 3 m 2,0 h 1 m 3,0 h 2 m 1,0 h 2 m 5,0 h 1 m 2,0 h 6 m 1,0 h 4 m 3,0 h 3 m 3,0 h 3 m -38,1 h 1 m 1,0 h 1 m 1,0 h 6 m 1,0 h 1 m 2,0 h 2 m 2,0 h 1 m 1,0 h 1 m 1,0 h 1 m 3,0 h 8 m 1,0 h 3 m -37,1 h 1 m 1,0 h 3 m 5,0 h 1 m 3,0 h 2 m 3,0 h 1 m 1,0 h 1 m 1,0 h 2 m 2,0 h 1 m 2,0 h 3 m 3,0 h 1 m -37,1 h 2 m 1,0 h 1 m 2,0 h 1 m 1,0 h 1 m 1,0 h 1 m 7,0 h 1 m 1,0 h 4 m 1,0 h 1 m 7,0 h 1 m 1,0 h 1 m -35,1 h 3 m 2,0 h 3 m 8,0 h 2 m 2,0 h 1 m 2,0 h 2 m 8,0 h 2 m -35,1 h 2 m 3,0 h 2 m 1,0 h 1 m 1,0 h 1 m 7,0 h 5 m 3,0 h 1 m 5,0 h 1 m -33,1 h 1 m 1,0 h 2 m 1,0 h 2 m 1,0 h 2 m 7,0 h 9 m 6,0 h 2 m 1,0 h 1 m -36,1 h 1 m 1,0 h 1 m 1,0 h 1 m 2,0 h 1 m 9,0 h 1 m 2,0 h 2 m 1,0 h 1 m 2,0 h 1 m 6,0 h 3 m -36,1 h 3 m 1,0 h 1 m 1,0 h 1 m 2,0 h 1 m 3,0 h 1 m 1,0 h 3 m 4,0 h 1 m 1,0 h 5 m 1,0 h 1 m 2,0 h 1 m 1,0 h 1 m -36,1 h 2 m 2,0 h 3 m 1,0 h 2 m 4,0 h 1 m 5,0 h 1 m 1,0 h 8 m 2,0 h 2 m -34,1 h 1 m 1,0 h 1 m 1,0 h 1 m 1,0 h 1 m 1,0 h 1 m 1,0 h 1 m 1,0 h 2 m 8,0 h 1 m 1,0 h 1 m 1,0 h 5 m 4,0 h 1 m -36,1 h 2 m 1,0 h 2 m 1,0 h 3 m 1,0 h 1 m 2,0 h 1 m 3,0 h 5 m 2,0 h 3 m 2,0 h 1 m 1,0 h 1 m 1,0 h 1"
         id="path2" /><path
         class="qrline"
         stroke="#000000"
         d="m 0,0.5 h 47 m -47,1 h 1 m 7,0 h 2 m 2,0 h 5 m 1,0 h 2 m 2,0 h 1 m 2,0 h 2 m 2,0 h 1 m 3,0 h 4 m 1,0 h 1 m 7,0 h 1 m -47,1 h 1 m 1,0 h 5 m 1,0 h 2 m 8,0 h 2 m 3,0 h 1 m 3,0 h 2 m 1,0 h 1 m 4,0 h 1 m 1,0 h 2 m 1,0 h 5 m 1,0 h 1 m -47,1 h 1 m 1,0 h 1 m 3,0 h 1 m 1,0 h 3 m 1,0 h 2 m 2,0 h 1 m 2,0 h 1 m 3,0 h 5 m 1,0 h 1 m 1,0 h 1 m 1,0 h 3 m 1,0 h 2 m 1,0 h 1 m 3,0 h 1 m 1,0 h 1 m -47,1 h 1 m 1,0 h 1 m 3,0 h 1 m 1,0 h 2 m 2,0 h 1 m 1,0 h 2 m 1,0 h 1 m 1,0 h 2 m 2,0 h 1 m 2,0 h 3 m 2,0 h 5 m 2,0 h 1 m 1,0 h 1 m 3,0 h 1 m 1,0 h 1 m -47,1 h 1 m 1,0 h 1 m 3,0 h 1 m 1,0 h 1 m 1,0 h 4 m 1,0 h 1 m 1,0 h 2 m 7,0 h 2 m 1,0 h 1 m 1,0 h 3 m 4,0 h 1 m 1,0 h 1 m 3,0 h 1 m 1,0 h 1 m -47,1 h 1 m 1,0 h 5 m 1,0 h 2 m 4,0 h 1 m 1,0 h 2 m 4,0 h 3 m 2,0 h 1 m 4,0 h 1 m 2,0 h 4 m 1,0 h 5 m 1,0 h 1 m -47,1 h 1 m 7,0 h 1 m 1,0 h 1 m 1,0 h 1 m 1,0 h 1 m 1,0 h 1 m 1,0 h 1 m 1,0 h 1 m 1,0 h 1 m 1,0 h 1 m 1,0 h 1 m 1,0 h 1 m 1,0 h 1 m 1,0 h 1 m 1,0 h 1 m 1,0 h 1 m 1,0 h 1 m 7,0 h 1 m -47,1 h 9 m 1,0 h 1 m 1,0 h 2 m 2,0 h 1 m 1,0 h 2 m 2,0 h 3 m 2,0 h 1 m 2,0 h 2 m 1,0 h 1 m 1,0 h 12 m -47,1 h 3 m 2,0 h 2 m 4,0 h 1 m 2,0 h 4 m 1,0 h 1 m 6,0 h 3 m 4,0 h 2 m 1,0 h 1 m 3,0 h 1 m 1,0 h 5 m -47,1 h 2 m 1,0 h 1 m 2,0 h 3 m 2,0 h 2 m 2,0 h 3 m 1,0 h 1 m 1,0 h 1 m 1,0 h 1 m 4,0 h 3 m 1,0 h 2 m 1,0 h 1 m 3,0 h 2 m 1,0 h 1 m 3,0 h 1 m -47,1 h 1 m 3,0 h 3 m 5,0 h 1 m 1,0 h 1 m 1,0 h 1 m 1,0 h 1 m 3,0 h 3 m 2,0 h 1 m 1,0 h 2 m 1,0 h 2 m 2,0 h 1 m 2,0 h 4 m 1,0 h 1 m 1,0 h 1 m -47,1 h 1 m 2,0 h 3 m 1,0 h 1 m 7,0 h 2 m 3,0 h 3 m 1,0 h 2 m 2,0 h 1 m 1,0 h 1 m 5,0 h 2 m 1,0 h 1 m 1,0 h 1 m 1,0 h 2 m 1,0 h 1 m -47,1 h 1 m 1,0 h 2 m 2,0 h 1 m 1,0 h 2 m 5,0 h 3 m 1,0 h 8 m 2,0 h 1 m 3,0 h 2 m 1,0 h 6 m 1,0 h 1 m 1,0 h 2 m -47,1 h 3 m 1,0 h 1 m 1,0 h 2 m 1,0 h 1 m 4,0 h 1 m 1,0 h 1 m 1,0 h 1 m 1,0 h 1 m 1,0 h 1 m 1,0 h 2 m 1,0 h 5 m 2,0 h 5 m 2,0 h 1 m 1,0 h 1 m 1,0 h 2 m -47,1 h 2 m 1,0 h 1 m 2,0 h 1 m 2,0 h 1 m 1,0 h 1 m 1,0 h 1 m 3,0 h 3 m 2,0 h 1 m 2,0 h 5 m 2,0 h 2 m 1,0 h 4 m 1,0 h 3 m 1,0 h 3 m -47,1 h 1 m 1,0 h 2 m 2,0 h 3 m 1,0 h 2 m 1,0 h 2 m 2,0 h 1 m 1,0 h 1 m 1,0 h 1 m 3,0 h 1 m 1,0 h 1 m 1,0 h 2 m 3,0 h 1 m 1,0 h 2 m 1,0 h 1 m 5,0 h 2 m -47,1 h 1 m 1,0 h 1 m 1,0 h 2 m 2,0 h 2 m 1,0 h 1 m 1,0 h 1 m 1,0 h 2 m 4,0 h 2 m 3,0 h 2 m 3,0 h 2 m 2,0 h 1 m 3,0 h 1 m 1,0 h 1 m 2,0 h 3 m -47,1 h 5 m 1,0 h 4 m 1,0 h 6 m 2,0 h 3 m 3,0 h 1 m 1,0 h 2 m 1,0 h 3 m 1,0 h 1 m 2,0 h 4 m 1,0 h 1 m 3,0 h 1 m -47,1 h 1 m 1,0 h 1 m 2,0 h 1 m 2,0 h 1 m 1,0 h 3 m 3,0 h 3 m 1,0 h 1 m 5,0 h 2 m 2,0 h 1 m 1,0 h 1 m 1,0 h 1 m 1,0 h 2 m 4,0 h 1 m 2,0 h 2 m -47,1 h 2 m 1,0 h 1 m 1,0 h 5 m 1,0 h 1 m 1,0 h 1 m 4,0 h 2 m 1,0 h 2 m 2,0 h 2 m 1,0 h 3 m 2,0 h 2 m 7,0 h 5 m -47,1 h 2 m 8,0 h 2 m 1,0 h 2 m 3,0 h 1 m 7,0 h 2 m 1,0 h 2 m 2,0 h 1 m 1,0 h 1 m 6,0 h 1 m 2,0 h 2 m -47,1 h 2 m 1,0 h 2 m 1,0 h 3 m 1,0 h 2 m 3,0 h 1 m 2,0 h 3 m 1,0 h 3 m 1,0 h 1 m 4,0 h 1 m 1,0 h 3 m 2,0 h 3 m 3,0 h 1 m 1,0 h 1 m -47,1 h 1 m 3,0 h 1 m 1,0 h 1 m 1,0 h 1 m 1,0 h 1 m 1,0 h 1 m 1,0 h 5 m 3,0 h 1 m 1,0 h 1 m 1,0 h 3 m 2,0 h 4 m 3,0 h 1 m 1,0 h 1 m 2,0 h 1 m 2,0 h 1 m -47,1 h 2 m 1,0 h 1 m 2,0 h 3 m 3,0 h 2 m 2,0 h 1 m 1,0 h 3 m 1,0 h 3 m 2,0 h 4 m 3,0 h 3 m 1,0 h 3 m 2,0 h 1 m 2,0 h 1 m -47,1 h 4 m 6,0 h 1 m 2,0 h 6 m 1,0 h 1 m 9,0 h 2 m 1,0 h 3 m 7,0 h 1 m 2,0 h 1 m -47,1 h 6 m 1,0 h 4 m 1,0 h 2 m 1,0 h 1 m 1,0 h 3 m 1,0 h 2 m 3,0 h 1 m 1,0 h 1 m 1,0 h 1 m 1,0 h 7 m 2,0 h 1 m 3,0 h 2 m -47,1 h 1 m 8,0 h 1 m 1,0 h 2 m 1,0 h 2 m 1,0 h 3 m 5,0 h 6 m 2,0 h 1 m 1,0 h 2 m 1,0 h 3 m 2,0 h 4 m -47,1 h 1 m 1,0 h 1 m 1,0 h 1 m 2,0 h 4 m 2,0 h 1 m 2,0 h 1 m 1,0 h 1 m 2,0 h 1 m 1,0 h 2 m 1,0 h 1 m 2,0 h 1 m 1,0 h 1 m 2,0 h 2 m 2,0 h 1 m 1,0 h 2 m 2,0 h 1 m 1,0 h 1 m -47,1 h 2 m 6,0 h 1 m 1,0 h 1 m 3,0 h 3 m 1,0 h 1 m 1,0 h 1 m 4,0 h 2 m 2,0 h 2 m 4,0 h 1 m 2,0 h 2 m 2,0 h 1 m 1,0 h 1 m 1,0 h 1 m -47,1 h 4 m 1,0 h 1 m 1,0 h 2 m 1,0 h 1 m 1,0 h 1 m 1,0 h 1 m 3,0 h 1 m 2,0 h 1 m 1,0 h 2 m 2,0 h 1 m 1,0 h 1 m 2,0 h 2 m 3,0 h 1 m 1,0 h 1 m 2,0 h 3 m 1,0 h 1 m -47,1 h 1 m 1,0 h 1 m 1,0 h 3 m 1,0 h 6 m 3,0 h 1 m 3,0 h 1 m 2,0 h 1 m 3,0 h 3 m 1,0 h 2 m 2,0 h 2 m 1,0 h 3 m 1,0 h 1 m 1,0 h 2 m -47,1 h 2 m 1,0 h 1 m 1,0 h 3 m 2,0 h 2 m 2,0 h 5 m 1,0 h 2 m 1,0 h 1 m 1,0 h 1 m 2,0 h 4 m 1,0 h 4 m 1,0 h 9 m -47,1 h 1 m 1,0 h 5 m 1,0 h 1 m 1,0 h 1 m 2,0 h 2 m 1,0 h 1 m 1,0 h 1 m 2,0 h 6 m 2,0 h 1 m 2,0 h 5 m 2,0 h 4 m 2,0 h 2 m -47,1 h 1 m 3,0 h 2 m 1,0 h 3 m 2,0 h 1 m 2,0 h 5 m 1,0 h 2 m 6,0 h 1 m 4,0 h 3 m 3,0 h 3 m 3,0 h 1 m -47,1 h 5 m 1,0 h 1 m 2,0 h 1 m 1,0 h 1 m 6,0 h 1 m 1,0 h 2 m 2,0 h 2 m 1,0 h 1 m 1,0 h 1 m 1,0 h 3 m 8,0 h 1 m 3,0 h 1 m -47,1 h 2 m 4,0 h 3 m 1,0 h 1 m 3,0 h 5 m 1,0 h 3 m 2,0 h 3 m 1,0 h 1 m 1,0 h 1 m 2,0 h 2 m 1,0 h 2 m 3,0 h 3 m 1,0 h 1 m -47,1 h 1 m 1,0 h 2 m 2,0 h 1 m 1,0 h 1 m 2,0 h 1 m 1,0 h 2 m 1,0 h 1 m 1,0 h 1 m 1,0 h 1 m 5,0 h 1 m 1,0 h 1 m 4,0 h 1 m 1,0 h 2 m 6,0 h 1 m 1,0 h 2 m -47,1 h 9 m 4,0 h 2 m 3,0 h 3 m 1,0 h 3 m 3,0 h 2 m 1,0 h 2 m 2,0 h 2 m 1,0 h 3 m 1,0 h 1 m 2,0 h 2 m -47,1 h 1 m 7,0 h 1 m 3,0 h 3 m 2,0 h 1 m 1,0 h 1 m 2,0 h 1 m 1,0 h 1 m 1,0 h 2 m 5,0 h 3 m 2,0 h 1 m 1,0 h 1 m 2,0 h 4 m -47,1 h 1 m 1,0 h 5 m 1,0 h 2 m 1,0 h 1 m 2,0 h 1 m 2,0 h 1 m 2,0 h 1 m 1,0 h 3 m 1,0 h 1 m 9,0 h 1 m 1,0 h 3 m 3,0 h 1 m 1,0 h 1 m -47,1 h 1 m 1,0 h 1 m 3,0 h 1 m 1,0 h 2 m 1,0 h 1 m 1,0 h 1 m 1,0 h 2 m 1,0 h 3 m 5,0 h 1 m 1,0 h 2 m 2,0 h 1 m 1,0 h 2 m 6,0 h 1 m 3,0 h 1 m -47,1 h 1 m 1,0 h 1 m 3,0 h 1 m 1,0 h 1 m 4,0 h 1 m 1,0 h 1 m 1,0 h 2 m 1,0 h 3 m 1,0 h 1 m 3,0 h 4 m 1,0 h 1 m 5,0 h 1 m 1,0 h 2 m 1,0 h 1 m 1,0 h 1 m -47,1 h 1 m 1,0 h 1 m 3,0 h 1 m 1,0 h 1 m 3,0 h 2 m 3,0 h 1 m 2,0 h 4 m 1,0 h 5 m 1,0 h 1 m 8,0 h 2 m 2,0 h 3 m -47,1 h 1 m 1,0 h 5 m 1,0 h 2 m 1,0 h 1 m 1,0 h 1 m 1,0 h 1 m 1,0 h 1 m 1,0 h 1 m 1,0 h 1 m 2,0 h 8 m 1,0 h 1 m 1,0 h 1 m 5,0 h 4 m 1,0 h 1 m -47,1 h 1 m 7,0 h 2 m 2,0 h 1 m 2,0 h 1 m 3,0 h 1 m 1,0 h 2 m 1,0 h 3 m 5,0 h 2 m 3,0 h 2 m 1,0 h 1 m 1,0 h 1 m 1,0 h 3 m -47,1 h 47"
         id="path3" /></g><g
       style="clip-rule:evenodd;fill-rule:evenodd;image-rendering:optimizeQuality;shape-rendering:geometricPrecision;text-rendering:geometricPrecision"
       id="g1"
       transform="matrix(0.00426316,0,0,0.00428488,41.945238,41.147306)"><g
         id="Layer_x0020_1"
         inkscape:label="Layer 1"
         inkscape:groupmode="layer">
  <metadata
   id="CorelCorpID_0Corel-Layer" />
  <g
   id="_1421344023328">
   <path
   fill="#f7931a"
   fill-rule="nonzero"
   d="M 4030.06,2540.77 C 3756.82,3636.78 2646.74,4303.79 1550.6,4030.48 454.92,3757.24 -212.09,2647.09 61.27,1551.17 334.39,455.04 1444.47,-212.02 2540.27,61.22 3636.33,334.46 4303.3,1444.73 4030.03,2540.79 l 0.02,-0.02 z"
   id="path1-3" />
   <path
   fill="#ffffff"
   fill-rule="nonzero"
   d="m 2947.77,1754.38 c 40.72,-272.26 -166.56,-418.61 -450,-516.24 l 91.95,-368.8 -224.5,-55.94 -89.51,359.09 c -59.02,-14.72 -119.63,-28.59 -179.87,-42.34 l 90.16,-361.46 -224.36,-55.94 -92,368.68 c -48.84,-11.12 -96.81,-22.11 -143.35,-33.69 l 0.26,-1.16 -309.59,-77.31 -59.72,239.78 c 0,0 166.56,38.18 163.05,40.53 90.91,22.69 107.35,82.87 104.62,130.57 l -104.74,420.15 c 6.26,1.59 14.38,3.89 23.34,7.49 -7.49,-1.86 -15.46,-3.89 -23.73,-5.87 l -146.81,588.57 c -11.11,27.62 -39.31,69.07 -102.87,53.33 2.25,3.26 -163.17,-40.72 -163.17,-40.72 l -111.46,256.98 292.15,72.83 c 54.35,13.63 107.61,27.89 160.06,41.3 l -92.9,373.03 224.24,55.94 92,-369.07 c 61.26,16.63 120.71,31.97 178.91,46.43 l -91.69,367.33 224.51,55.94 92.89,-372.33 c 382.82,72.45 670.67,43.24 791.83,-303.02 97.63,-278.78 -4.86,-439.58 -206.26,-544.44 146.69,-33.83 257.18,-130.31 286.64,-329.61 l -0.07,-0.05 z m -512.93,719.26 c -69.38,278.78 -538.76,128.08 -690.94,90.29 l 123.28,-494.2 c 152.17,37.99 640.17,113.17 567.67,403.91 z m 69.43,-723.3 c -63.29,253.58 -453.96,124.75 -580.69,93.16 l 111.77,-448.21 c 126.73,31.59 534.85,90.55 468.94,355.05 z"
   id="path2-6" />
  </g>
 </g></g></g></svg>
